<?xml version="1.0" encoding="UTF-8"?>
<svg id="Laag_2" data-name="Laag 2" xmlns="http://www.w3.org/2000/svg" viewBox="0 0 18.45 18.43">
  <defs>
    <style>
      .cls-1 {
        fill: #fff;
      }
    </style>
  </defs>
  <g id="Laag_1-2" data-name="Laag 1">
    <g>
      <path class="cls-1" d="M17.44.99c-.63-.63-1.52-.99-2.45-.99s-1.83.36-2.46.99l-.73.73c-.54-.33-1.18-.51-1.83-.51-.93,0-1.82.36-2.45.99-1.16,1.16-1.33,2.93-.49,4.29l-4.31,4.31c-.63.63-.98,1.48-.98,2.37v.03l-1.01,1.01c-.97.96-.97,2.53,0,3.49.46.47,1.08.73,1.74.73s1.28-.26,1.75-.73l1.01-1.01h.03c.9,0,1.74-.35,2.37-.98l4.3-4.3c.55.34,1.18.52,1.84.52.93,0,1.8-.36,2.46-1.02s1.01-1.52,1.01-2.45c0-.65-.18-1.28-.53-1.83l.73-.73c1.35-1.36,1.35-3.56,0-4.91ZM6.13,14.56c-.29.36-.73.59-1.24.59-.89,0-1.62-.73-1.62-1.62,0-.53.25-1,.64-1.28.03-.05.08-.1.12-.14l4.84-4.84,2.29,2.29-4.84,4.84c-.06.06-.12.11-.19.16Z"/>
      <path class="cls-1" d="M16.84,1.59c-.99-.99-2.72-.99-3.71,0l-1.26,1.26-.05-.04c-.99-.99-2.71-1-3.7,0-1.02,1.02-1.02,2.68,0,3.7l.04.05-4.84,4.84c-.47.47-.73,1.1-.73,1.77v.38l-1.26,1.26c-.63.63-.63,1.66,0,2.29.31.32.73.47,1.14.47s.83-.15,1.15-.47l1.26-1.26h.38c.67,0,1.3-.26,1.77-.73l4.84-4.84.05.04c.49.5,1.15.77,1.85.77s1.36-.27,1.85-.77c.5-.49.77-1.15.77-1.85s-.27-1.36-.77-1.85l-.04-.05,1.26-1.26c1.02-1.02,1.02-2.69,0-3.71ZM6.32,14.4c-.06.06-.12.11-.19.16-.29.36-.73.59-1.24.59-.89,0-1.62-.73-1.62-1.62,0-.53.25-1,.64-1.28.03-.05.08-.1.12-.14l4.84-4.84,2.29,2.29-4.84,4.84Z"/>
    </g>
  </g>
</svg>
