<?xml version="1.0" encoding="UTF-8"?>
<svg id="Laag_2" data-name="Laag 2" xmlns="http://www.w3.org/2000/svg" viewBox="0 0 18.6 18.57">
  <defs>
    <style>
      .cls-1 {
        fill: none;
      }

      .cls-1, .cls-2, .cls-3 {
        stroke-linecap: round;
        stroke-linejoin: round;
      }

      .cls-1, .cls-3 {
        stroke: #000;
      }

      .cls-2 {
        fill: #fff;
        stroke: #fff;
      }
    </style>
  </defs>
  <g id="Laag_1-2" data-name="Laag 1">
    <g>
      <path class="cls-2" d="M18.1,3.59c0-.21-.02-.41-.06-.61-.12-.6-.41-1.15-.86-1.59-.1-.1-.21-.17-.31-.25-.71-.54-1.63-.74-2.5-.58-.6.11-1.16.39-1.6.83l-.93.93c-1.19-.9-3.01-.79-4.09.29-.59.59-.92,1.37-.92,2.21,0,.69.23,1.33.64,1.87l-4.52,4.52c-.57.57-.88,1.32-.88,2.12v.38l-1.01,1.01c-.77.77-.77,2.02,0,2.79.37.37.87.58,1.39.58s1.02-.21,1.39-.58l1.01-1.01h.38c.8,0,1.55-.31,2.12-.88l4.52-4.52c.54.41,1.18.64,1.87.64.83,0,1.62-.32,2.21-.91,1.11-1.11,1.21-2.86.29-4.09l.93-.93c.59-.59.92-1.37.92-2.21Z"/>
      <path class="cls-1" d="M3.67,11.9c-.38.38-.59.88-.59,1.41v.59l-1.41,1.41c-.44.44-.44,1.15,0,1.58s1.15.44,1.58,0l1.41-1.41h.59c.53,0,1.04-.21,1.41-.59l5.2-5.2-3-3-5.2,5.2Z"/>
      <path class="cls-3" d="M16.48,2.09c-.83-.83-2.17-.83-3,0l-1.62,1.62-.4-.4c-.83-.83-2.17-.83-3,0s-.83,2.17,0,3l3.8,3.8c.83.83,2.17.83,3,0,.83-.83.83-2.17,0-3l-.4-.4,1.62-1.62c.83-.83.83-2.17,0-3Z"/>
    </g>
  </g>
</svg>
